<svg width="25" height="25" viewBox="0 0 25 25" fill="none" xmlns="http://www.w3.org/2000/svg">
<path d="M12.0563 2.36365C17.5791 2.36365 22.0563 6.8408 22.0563 12.3636C22.0563 17.8864 17.5791 22.3636 12.0563 22.3636C6.53342 22.3636 2.05627 17.8864 2.05627 12.3636C2.05627 6.8408 6.53342 2.36365 12.0563 2.36365ZM12.0563 6.36365C8.74256 6.36365 6.05627 9.04994 6.05627 12.3636C6.05627 15.6773 8.74256 18.3636 12.0563 18.3636C15.37 18.3636 18.0563 15.6773 18.0563 12.3636C18.0563 9.04994 15.37 6.36365 12.0563 6.36365ZM12.0563 8.11365C13.437 8.11365 14.5563 9.23294 14.5563 10.6136C14.5563 11.2451 14.3221 11.822 13.9359 12.262C14.501 12.7176 14.8563 13.3785 14.8563 14.1136C14.8563 15.4943 13.6027 16.6136 12.0563 16.6136C10.5099 16.6136 9.25627 15.4943 9.25627 14.1136C9.25627 13.3785 9.61157 12.7176 10.1772 12.2602C9.79043 11.822 9.55627 11.2451 9.55627 10.6136C9.55627 9.23294 10.6756 8.11365 12.0563 8.11365ZM12.0563 13.1136C11.3028 13.1136 10.7563 13.6016 10.7563 14.1136C10.7563 14.6256 11.3028 15.1136 12.0563 15.1136C12.8098 15.1136 13.3563 14.6256 13.3563 14.1136C13.3563 13.6016 12.8098 13.1136 12.0563 13.1136ZM12.0563 9.61365C11.504 9.61365 11.0563 10.0614 11.0563 10.6136C11.0563 11.1659 11.504 11.6136 12.0563 11.6136C12.6086 11.6136 13.0563 11.1659 13.0563 10.6136C13.0563 10.0614 12.6086 9.61365 12.0563 9.61365Z" fill="black"/>
</svg>
